<svg xmlns="http://www.w3.org/2000/svg" viewBox="0 0 64 64" width="64" height="64">
  <defs>
    <linearGradient id="speedBg" x1="0%" y1="0%" x2="100%" y2="100%">
      <stop offset="0%" style="stop-color:#0f172a"/>
      <stop offset="100%" style="stop-color:#1e293b"/>
    </linearGradient>
    <filter id="speedGlow">
      <feGaussianBlur stdDeviation="1.5" result="blur"/>
      <feMerge>
        <feMergeNode in="blur"/>
        <feMergeNode in="SourceGraphic"/>
      </feMerge>
    </filter>
  </defs>

  <style>
    @keyframes needleSweep {
      0%, 100% { transform: rotate(-60deg); }
      50% { transform: rotate(50deg); }
    }
    @keyframes arcPulse {
      0%, 100% { opacity: 0.6; }
      50% { opacity: 1; }
    }
    .needle {
      transform-origin: 32px 36px;
      animation: needleSweep 3s ease-in-out infinite;
    }
    .arc-pulse {
      animation: arcPulse 3s ease-in-out infinite;
    }
  </style>

  <rect width="64" height="64" rx="12" fill="url(#speedBg)"/>

  <!-- Gauge arc background -->
  <path d="M14,42 A20,20 0 0,1 50,42" fill="none" stroke="#334155" stroke-width="3" stroke-linecap="round"/>

  <!-- Gauge arc colored segments -->
  <g class="arc-pulse" filter="url(#speedGlow)">
    <path d="M14,42 A20,20 0 0,1 22,26" fill="none" stroke="#34d399" stroke-width="3" stroke-linecap="round"/>
    <path d="M22,26 A20,20 0 0,1 42,26" fill="none" stroke="#f59e0b" stroke-width="3" stroke-linecap="round"/>
    <path d="M42,26 A20,20 0 0,1 50,42" fill="none" stroke="#a78bfa" stroke-width="3" stroke-linecap="round"/>
  </g>

  <!-- Tick marks -->
  <g opacity="0.4">
    <line x1="14" y1="42" x2="17" y2="42" stroke="#94a3b8" stroke-width="1"/>
    <line x1="18" y1="30" x2="20" y2="32" stroke="#94a3b8" stroke-width="1"/>
    <line x1="32" y1="22" x2="32" y2="25" stroke="#94a3b8" stroke-width="1"/>
    <line x1="46" y1="30" x2="44" y2="32" stroke="#94a3b8" stroke-width="1"/>
    <line x1="50" y1="42" x2="47" y2="42" stroke="#94a3b8" stroke-width="1"/>
  </g>

  <!-- Needle -->
  <g class="needle" filter="url(#speedGlow)">
    <line x1="32" y1="36" x2="32" y2="20" stroke="#f59e0b" stroke-width="2" stroke-linecap="round"/>
  </g>

  <!-- Center dot -->
  <circle cx="32" cy="36" r="3" fill="#1e293b" stroke="#f59e0b" stroke-width="1.5"/>

  <!-- Label -->
  <text x="32" y="54" text-anchor="middle" font-family="system-ui, sans-serif" font-size="7" fill="#64748b" font-weight="600">Gbps</text>
</svg>